<?xml version="1.0" encoding="UTF-8"?>
<svg id="Capa_1" data-name="Capa 1" xmlns="http://www.w3.org/2000/svg" viewBox="0 0 2942.32 773.04">
  <defs>
    <style>
      .cls-1 {
        fill: #fff;
      }
    </style>
  </defs>
  <g>
    <path class="cls-1" d="M1951.5,518.94v-216.74h39.67l19.35,9.68c13.55-2.58,29.83-4.84,48.86-6.77,19.03-1.93,40.8-2.9,65.32-2.9h24.19c16.12,0,28.54,2.26,37.25,6.77,8.71,4.52,14.91,10.16,18.63,16.93,3.7,6.77,5.96,13.63,6.77,20.56.8,6.94,1.21,12.82,1.21,17.66v154.82h-59.02v-155.78c0-12.9-7.74-19.35-23.22-19.35h-105.47c-6.13,0-10.09.56-11.85,1.69-1.78,1.13-2.66,4.11-2.66,8.95v164.49h-59.02Z"/>
    <path class="cls-1" d="M2317.74,518.94c-21.61,0-37.66-4.35-48.14-13.06-10.48-8.71-15.72-22.9-15.72-42.58v-99.18c0-4.83.4-10.72,1.21-17.66.8-6.93,3.06-13.79,6.77-20.56,3.71-6.77,10-12.41,18.87-16.93,8.87-4.51,21.2-6.77,37.01-6.77h133.53c16.12,0,28.54,2.26,37.25,6.77,8.71,4.52,14.91,10.16,18.63,16.93,3.7,6.77,5.96,13.63,6.77,20.56.8,6.94,1.21,12.82,1.21,17.66v92.89c0,5.8-.41,12.26-1.21,19.35-.81,7.1-3.15,13.87-7.02,20.32-3.87,6.45-10.16,11.78-18.87,15.96-8.71,4.2-20.97,6.29-36.77,6.29h-133.53ZM2336.12,477.33h96.76c15.8,0,23.71-6.45,23.71-19.35v-94.82c0-12.9-7.91-19.35-23.71-19.35h-96.76c-15.48,0-23.22,6.45-23.22,19.35v94.82c0,12.91,7.74,19.35,23.22,19.35Z"/>
    <path class="cls-1" d="M2613.34,518.94l-77.89-216.74h67.73l39.19,122.88,12.58,43.06h4.84l7.26-38.22,33.38-127.72h77.41l35.32,127.72,6.77,38.22h4.83l13.06-44.02,36.77-121.92h67.73l-7.74,29.51-69.67,187.23h-77.41l-40.16-133.04-4.84-22.74h-4.84l-5.8,22.74-41.12,133.04h-77.41Z"/>
  </g>
  <g>
    <path class="cls-1" d="M991.48,525.16c-27.09,0-48.22-1.37-63.38-4.11-15.17-2.74-25.97-5.64-32.42-8.71-6.45-3.06-10.48-5.24-12.1-6.53l24.19-52.25c6.45.65,15.96,1.37,28.54,2.18,12.58.81,29.83,1.53,51.77,2.18,21.93.65,49.99.97,84.18.97,14.19,0,23.22-2.49,27.09-7.5,3.87-5,5.8-10.56,5.8-16.69v-1.93c0-7.42-1.93-13.38-5.8-17.9-3.87-4.51-11.45-6.77-22.74-6.77h-131.6v-57.57h117.08c8.71,0,15.56-1.45,20.56-4.35,5-2.9,7.5-8.54,7.5-16.93v-5.32c0-6.77-1.45-12.01-4.35-15.72-2.9-3.71-9.04-5.56-18.39-5.56h-18.87c-20.64,0-40.48.48-59.51,1.45-19.03.97-35.73,2.18-50.07,3.63-14.36,1.45-25.4,2.99-33.14,4.59l-4.84-61.92c2.25-.64,10.4-2.18,24.43-4.6,14.03-2.42,32.82-4.67,56.36-6.77,23.54-2.09,50.63-3.15,81.28-3.15h13.06c27.09,0,48.45,3.15,64.1,9.44,15.64,6.29,26.85,15.08,33.62,26.37,6.77,11.29,10.16,24.67,10.16,40.16v8.23c0,9.67-1.78,17.82-5.32,24.43-3.55,6.61-7.58,11.69-12.1,15.24-4.52,3.55-8.39,5.97-11.61,7.26,29.35,8.71,44.03,30.32,44.03,64.83v6.77c0,26.78-8.15,47.9-24.43,63.38-16.29,15.48-44.11,23.22-83.46,23.22h-99.66Z"/>
    <path class="cls-1" d="M1330.62,525.16c-26.45,0-46.69-4.6-60.72-13.79-14.03-9.19-23.7-21.12-29.03-35.8-5.32-14.68-7.98-30.24-7.98-46.69v-91.92c0-12.25,1.28-24.1,3.87-35.56,2.58-11.44,7.26-21.77,14.03-30.96,6.77-9.19,16.61-16.45,29.51-21.77,12.9-5.32,29.67-7.98,50.32-7.98h84.66c28.06,0,49.59.89,64.59,2.66,15,1.78,25.64,3.79,31.93,6.05,6.29,2.26,10.07,4.2,11.37,5.81l-13.55,57.09c-3.55-.31-12.09-.88-25.64-1.69-13.55-.8-30.89-1.53-52.01-2.18-21.13-.64-45.24-.97-72.33-.97-12.91,0-21.61,2.83-26.13,8.47-4.52,5.65-6.77,12.5-6.77,20.56v16.45c3.55-.97,13.79-2.66,30.72-5.08,16.93-2.42,39.11-3.63,66.52-3.63h17.9c33.86,0,58.62,6.7,74.26,20.08,15.64,13.39,23.47,34.43,23.47,63.14v11.61c0,16.77-2.74,31.69-8.23,44.75-5.49,13.06-15.24,23.23-29.27,30.48-14.03,7.26-33.95,10.88-59.75,10.88h-111.76ZM1359.65,458.4h53.22c12.9,0,21.61-2.42,26.13-7.26,4.51-4.84,6.77-12.25,6.77-22.26v-2.9c0-8.71-2.1-15-6.29-18.87-4.19-3.87-13.23-5.8-27.09-5.8h-85.63v28.06c0,9.04,2.42,16.13,7.26,21.29,4.84,5.17,13.38,7.74,25.64,7.74Z"/>
    <path class="cls-1" d="M1681.37,525.16c-38.7,0-66.36-7.66-82.97-22.98-16.62-15.31-24.91-39.75-24.91-73.3v-92.41c0-33.54,8.23-57.89,24.67-73.05,16.45-15.15,44.18-22.74,83.22-22.74h92.41c39.02,0,66.68,7.58,82.97,22.74,16.28,15.16,24.43,39.51,24.43,73.05v92.41c0,33.55-8.23,57.98-24.67,73.3-16.45,15.32-44.02,22.98-82.73,22.98h-92.41ZM1700.24,459.37h55.15c11.93,0,20.39-3.06,25.4-9.19,4.99-6.12,7.5-14.51,7.5-25.16v-84.67c0-9.35-2.59-17.33-7.74-23.95-5.17-6.61-13.55-9.92-25.16-9.92h-55.15c-11.61,0-20.16,3.07-25.64,9.19-5.49,6.13-8.23,14.36-8.23,24.67v84.67c0,10.97,2.66,19.43,7.98,25.4,5.32,5.97,13.95,8.95,25.88,8.95Z"/>
  </g>
  <path class="cls-1" d="M623.17,165.79c-77.35-64.51-184.53-76.03-293.96-31.68l-4.32,1.77V23.84c0-12.44-9.71-22.64-22.15-23.25C203.72-4.22,127.17,20.57,75.41,74.27,16.11,135.78-8.38,231.93,2.52,360.07c1.01,11.96,11.21,21.31,23.17,21.31l297.62.04c87.06,0,157.92,70.82,157.92,157.88,0,73.69-50.13,136.92-121.87,153.73-2.12.35-84.72,16.33-128.14,24.71l-5.43,1.06,9.62-26.25c2.16-5.96,1.85-12.35-.88-18.05-1.68-3.53-4.28-6.53-7.72-8.91l-.75-.75c-1.19-1.59-2.34-2.91-3.57-3.97-34.37-29.87-54.14-73.16-54.14-118.69,0-33.18,10.24-64.91,29.52-91.69,3.62-5.03,5.07-11.16,4.06-17.3-.97-6.09-4.28-11.47-9.31-15.09-4.1-2.91-8.82-4.32-13.5-4.32-7.24,0-14.34,3.31-18.84,9.62-25.02,34.77-38.26,75.85-38.26,118.78,0,55.38,22.99,109.07,63.14,147.33l1.46,1.41-21,57.23c-2.29,6.31-1.1,13.15,3.22,18.27,4.24,5.12,10.94,7.5,17.43,6.35l172.31-30.49s.22-.09.44-.13c3.66-.53,6.75-1.06,9.57-1.72,176.5-27,301.37-119.93,342.85-254.95,36.01-117.19.53-245.64-88.25-319.68ZM135.86,134.46c26.52,0,57.85,15,58.73,57.32-.88,42.67-32.21,57.76-58.73,57.76s-57.8-15.05-58.77-57.45c.97-42.58,32.25-57.63,58.77-57.63ZM666.94,471.79c-23.96,77.92-81.36,140.14-166.08,179.89l-9.62,4.5,5.65-9c7.37-11.78,13.46-24.18,18.22-37.11v-.04c8.34-22.46,12.62-46.42,12.62-70.73,0-53.43-20.56-104.04-57.93-142.43-37.29-38.34-87.1-60.32-140.32-61.91l-3.04-.13H47.39l-.13-2.96c-1.1-21.71-.93-42.89.44-62.92l.48-7.19,4.94,5.29c20.61,22.11,50.74,34.81,82.73,34.81,54.23,0,109.82-37.55,111.06-109.38v-.88c-1.15-68.08-50.39-103.69-98.62-108.77l-9.62-1.01,8.38-4.81c34.02-19.64,77.13-29.87,128.14-30.4l3.13-.04v125.89c0,8.07,4.28,15.71,11.21,19.9,6.88,4.19,15.62,4.5,22.81.75,34.9-18.09,66.76-29.08,95.66-34.81,91.42-18.14,152.98,16.24,185.32,43.24,74.57,62.17,104.13,170.8,73.6,270.26Z"/>
  <rect class="cls-1" x="209.31" y="494.75" width="215.39" height="42.5" rx="21.25" ry="21.25"/>
  <rect class="cls-1" x="291.39" y="572.64" width="133.31" height="42.5" rx="21.25" ry="21.25"/>
</svg>